<?xml version="1.0" encoding="UTF-8" standalone="no"?>
<!-- Created with Inkscape (http://www.inkscape.org/) -->

<svg
   xmlns:dc="http://purl.org/dc/elements/1.1/"
   xmlns:cc="http://creativecommons.org/ns#"
   xmlns:rdf="http://www.w3.org/1999/02/22-rdf-syntax-ns#"
   xmlns:svg="http://www.w3.org/2000/svg"
   xmlns="http://www.w3.org/2000/svg"
   xmlns:sodipodi="http://sodipodi.sourceforge.net/DTD/sodipodi-0.dtd"
   xmlns:inkscape="http://www.inkscape.org/namespaces/inkscape"
   width="107.08748mm"
   height="114.25977mm"
   viewBox="0 0 107.08748 114.25977"
   version="1.1"
   id="svg8"
   inkscape:version="0.92.2 (5c3e80d, 2017-08-06)"
   sodipodi:docname="logo_1.svg">
  <defs
     id="defs2" />
  <sodipodi:namedview
     id="base"
     pagecolor="#ffffff"
     bordercolor="#666666"
     borderopacity="1.0"
     inkscape:pageopacity="0.0"
     inkscape:pageshadow="2"
     inkscape:zoom="0.38697675"
     inkscape:cx="93.037927"
     inkscape:cy="-319.91751"
     inkscape:document-units="mm"
     inkscape:current-layer="layer1"
     showgrid="false"
     inkscape:window-width="1920"
     inkscape:window-height="1021"
     inkscape:window-x="0"
     inkscape:window-y="30"
     inkscape:window-maximized="1"
     fit-margin-top="0"
     fit-margin-left="0"
     fit-margin-right="0"
     fit-margin-bottom="0" />
  <metadata
     id="metadata5">
    <rdf:RDF>
      <cc:Work
         rdf:about="">
        <dc:format>image/svg+xml</dc:format>
        <dc:type
           rdf:resource="http://purl.org/dc/dcmitype/StillImage" />
        <dc:title></dc:title>
      </cc:Work>
    </rdf:RDF>
  </metadata>
  <g
     inkscape:label="Layer 1"
     inkscape:groupmode="layer"
     id="layer1"
     transform="translate(-43.813862,-36.229754)">
    <path
       inkscape:connector-curvature="0"
       id="path4511"
       d="m 90.682711,78.400169 a 25.220179,25.220179 0 0 0 -25.22014,25.220141 25.220179,25.220179 0 0 0 25.22014,25.22014 25.220179,25.220179 0 0 0 25.220419,-25.22014 25.220179,25.220179 0 0 0 -25.220419,-25.220141 z m 0.406817,6.553558 A 18.453021,18.453021 0 0 1 109.54255,103.40675 18.453021,18.453021 0 0 1 91.089528,121.85977 18.453021,18.453021 0 0 1 72.636506,103.40675 18.453021,18.453021 0 0 1 91.089528,84.953727 Z"
       style="fill:#6dd6ff;fill-opacity:1;stroke-width:0.73450494;stroke-linejoin:round;stroke-miterlimit:4;stroke-dasharray:none" />
    <path
       style="fill:#6dd6ff;fill-opacity:1;stroke-width:0.22077106;stroke-linejoin:round;stroke-miterlimit:4;stroke-dasharray:none"
       d="m 90.682809,96.039861 a 7.5804605,7.5804605 0 0 0 -7.580449,7.580449 7.5804605,7.5804605 0 0 0 7.580449,7.58045 7.5804605,7.5804605 0 0 0 7.580532,-7.58045 7.5804605,7.5804605 0 0 0 -7.580532,-7.580449 z m 0.122277,1.969811 a 5.5464474,5.5464474 0 0 1 5.546448,5.546448 5.5464474,5.5464474 0 0 1 -5.546448,5.54645 5.5464474,5.5464474 0 0 1 -5.546448,-5.54645 5.5464474,5.5464474 0 0 1 5.546448,-5.546448 z"
       id="path4515"
       inkscape:connector-curvature="0" />
    <text
       xml:space="preserve"
       style="font-style:normal;font-variant:normal;font-weight:normal;font-stretch:normal;font-size:10.58333302px;line-height:1.25;font-family:'Trebuchet MS';-inkscape-font-specification:'Trebuchet MS';letter-spacing:0px;word-spacing:0px;fill:#000000;fill-opacity:1;stroke:none;stroke-width:0.26458332"
       x="10.423512"
       y="130.75835"
       id="text4519"><tspan
         sodipodi:role="line"
         x="10.423512"
         y="140.36148"
         style="font-style:normal;font-variant:normal;font-weight:normal;font-stretch:normal;font-family:'Trebuchet MS';-inkscape-font-specification:'Trebuchet MS';stroke-width:0.26458332"
         id="tspan4521" /></text>
    <text
       xml:space="preserve"
       style="font-style:normal;font-variant:normal;font-weight:normal;font-stretch:normal;font-size:10.58333302px;line-height:1.25;font-family:'Trebuchet MS';-inkscape-font-specification:'Trebuchet MS';letter-spacing:0px;word-spacing:0px;fill:#000000;fill-opacity:1;stroke:none;stroke-width:0.26458332"
       x="27.261492"
       y="104.0314"
       id="text4527"><tspan
         sodipodi:role="line"
         id="tspan4525"
         x="27.261492"
         y="113.63454"
         style="font-style:normal;font-variant:normal;font-weight:normal;font-stretch:normal;font-family:'Trebuchet MS';-inkscape-font-specification:'Trebuchet MS';stroke-width:0.26458332"></tspan></text>
    <path
       style="fill:#6dd6ff;fill-opacity:1;stroke-width:5.15905523;stroke-linejoin:round;stroke-miterlimit:4;stroke-dasharray:none"
       d="m 343.35547,214.51562 c 0.47696,3.42506 -1.72543,6.68162 -5.16211,7.45899 l -58.5957,13.25391 c -3.62607,0.82021 -7.20518,-1.43839 -8.02539,-5.06446 l -0.12891,-0.56836 A 177.14285,177.14285 0 0 0 165.5957,391.63672 177.14285,177.14285 0 0 0 342.73828,568.7793 177.14285,177.14285 0 0 0 519.88281,391.63672 177.14285,177.14285 0 0 0 495.04492,301.56836 c -2.95084,2.39235 -7.26573,2.21668 -10.01367,-0.53125 l -47.47656,-47.47656 c -2.93803,-2.93803 -2.93803,-7.6694 0,-10.60743 l 0.5664,-0.5664 a 177.14285,177.14285 0 0 0 -94.76562,-27.8711 z m 2.24023,46.00977 A 129.61132,129.61132 0 0 1 475.20703,390.13672 129.61132,129.61132 0 0 1 345.5957,519.74805 129.61132,129.61132 0 0 1 215.98438,390.13672 129.61132,129.61132 0 0 1 345.5957,260.52539 Z"
       transform="scale(0.26458333)"
       id="path3699"
       inkscape:connector-curvature="0" />
    <rect
       style="fill:#6dd6ff;fill-opacity:1;stroke-width:1.22132909;stroke-linejoin:round;stroke-miterlimit:4;stroke-dasharray:none"
       id="rect4643"
       width="19.446093"
       height="28.070011"
       x="128.43784"
       y="-66.560577"
       ry="1.7755128"
       transform="rotate(45)" />
    <rect
       transform="matrix(0.979229,-0.20275743,0.23989244,0.97079947,0,0)"
       ry="1.3049499"
       y="52.236877"
       x="57.11282"
       height="20.630634"
       width="15.479072"
       id="rect4661"
       style="fill:#6dd6ff;fill-opacity:1;stroke-width:0.93416578;stroke-linejoin:round;stroke-miterlimit:4;stroke-dasharray:none" />
  </g>
</svg>
